<svg xmlns="http://www.w3.org/2000/svg" xmlns:xlink="http://www.w3.org/1999/xlink" viewBox="0 0 91 112.5" version="1.1" x="0px" y="0px">
<title>4-18</title><desc>Created with Sketch.</desc><g stroke="none" stroke-width="1" fill="none" fill-rule="evenodd"><g transform="translate(-5.000000, -5.000000)"
 fill="#000000" fill-rule="nonzero">
 <path d="M67.5045264,61.6182157 C67.9323662,62.3730978 67.6672461,63.3318834 66.9123641,63.7597232 C66.157482,64.1875631 65.1986964,63.922443 64.7708565,63.1675609 C56.7689191,49.0489161 43.1287398,45.861079 27.7695791,54.4930194 C27.1528133,54.8396455 26.380445,54.7312694 25.8828935,54.2282861 C20.2179055,48.5014533 13.8582454,45.9665551 6.69407768,46.528692 C5.82904191,46.5965671 5.07276824,45.9503407 5.00489315,45.0853049 C4.93701806,44.2202691 5.58324448,43.4639954 6.44828025,43.3961204 C14.1999129,42.787888 21.1692423,45.4006809 27.2674768,51.1864927 C43.6876577,42.4562541 58.8016589,46.2628477 67.5045264,61.6182157 Z M62.580357,70.7408672 C63.2724736,70.2175428 64.2577833,70.3543759 64.7811077,71.0464925 C65.3044322,71.7386091 65.1675991,72.7239188 64.4754824,73.2472433 C50.4416986,83.8584928 36.6805682,83.9672673 23.6079089,73.0927846 C22.9408409,72.5378845 22.8499108,71.5472836 23.4048109,70.8802156 C23.959711,70.2131475 24.9503119,70.1222174 25.61738,70.6771175 C37.5352272,80.5909706 49.6801811,80.4949711 62.580357,70.7408672 Z M46.8544925,25.0640579 C46.2820164,24.4120111 46.3465211,23.4193392 46.9985678,22.846863 C47.6506146,22.2743869 48.6432865,22.3388916 49.2157627,22.9909383 C55.5884036,30.2493362 57.3384666,39.0500735 56.3168759,50.9016742 C56.2423582,51.7661631 55.481143,52.4065613 54.6166541,52.3320436 C53.7521652,52.2575259 53.111767,51.4963107 53.1862847,50.6318218 C54.1414613,39.5506998 52.550942,31.552278 46.8544925,25.0640579 Z M48.1649327,18.9028101 C48.3439307,18.0537791 49.1773129,17.51061 50.0263438,17.689608 C50.8753748,17.868606 51.4185439,18.7019882 51.2395459,19.5510192 C50.8445067,21.4247861 50.1477796,23.4924496 49.4003898,24.8049391 L48.6799837,25.4601586 L30.908628,33.4578891 C28.706696,34.3459611 27.3357629,33.3407199 25.8538069,31.0162496 L22.0418798,29.9880117 C20.1350947,29.3572501 19.0685705,27.3213386 19.323154,25.047391 L21.9873118,10.6043706 C22.5191565,7.82923224 24.8047705,5.30258976 27.9977661,5 L49.0015417,5.38893563 C51.7440084,5.47615188 54.5000062,6.78382531 57.0488659,9.01488533 C74.7076514,24.8565399 91.359676,48.2748574 95.1621052,63.6731415 C96.6440925,70.0375039 95.6807284,77.1862283 92.6013951,83.4292604 C92.4353263,83.7659478 92.154186,84.0320402 91.8088811,84.1793555 C64.15166,95.978587 41.7008538,98.1835238 23.1980598,90.5217116 L18.0790699,93.1798719 C17.3090081,93.5797452 16.3605882,93.2796482 15.9607148,92.5095864 C15.5608415,91.7395246 15.8609385,90.7911047 16.6310003,90.3912314 L22.404793,87.3930488 C22.8228424,87.1759664 23.3162368,87.1579141 23.7490324,87.3438658 C41.3594082,94.910206 63.0042298,92.9549339 90.0330915,81.5197814 C92.6011658,76.0366562 93.3736778,69.847883 92.1066622,64.4061155 C88.4846772,49.739111 72.1819876,26.8120753 54.9649842,11.3665845 C52.9341353,9.58907262 50.8303986,8.59088581 48.9225253,8.53007273 L28.1220877,8.13442427 C26.6343844,8.28037795 25.3626562,9.68621568 25.0753665,11.1850773 L22.4298494,25.5043525 C22.3431888,26.2913246 22.6515931,26.8800443 22.9436357,26.9792964 L27.2728892,28.1445289 C27.6670936,28.2506303 28.0045206,28.5060046 28.2137093,28.856568 C29.0556066,30.2674398 29.4846304,30.6440732 29.6761186,30.5681703 L46.8948264,22.8178429 C47.3867213,21.794175 47.875565,20.2753515 48.1649327,18.9028101 Z"/></g></g><text x="0" y="105" fill="#000000" font-size="5px" font-weight="bold" 
 font-family="'Helvetica Neue', Helvetica, Arial-Unicode, Arial, Sans-serif">Created by Mohammad Iqbal</text><text x="0" y="110" fill="#000000"
  font-size="5px" font-weight="bold" font-family="'Helvetica Neue', Helvetica, Arial-Unicode, Arial, Sans-serif">from the Noun Project</text></svg>